The story of Jesus' life as told by the apostle John, narrated by Christopher Plummer. 


General
Complete name                    : H:\Movies\The.Bible.-.The.Gospel.of.John.[2003].DvdRip.XviD-Knã\The.Bible.-.The.Gospel.of.John.[2003].DvdRip.XviD-Knã.CD1.avi
Format                           : AVI
Format/Info                      : Audio Video Interleave
File size                        : 896 MiB
Duration                         : 1h 40mn
Overall bit rate                 : 1 242 Kbps
Writing application              : VirtualDubMod 1.5.4.1 (build 2178/release)
Writing library                  : VirtualDubMod build 2178/release

Video
ID                               : 0
Format                           : MPEG-4 Visual
Format profile                   : Advanced Simple@L5
Format settings, BVOP            : Yes
Format settings, QPel            : No
Format settings, GMC             : No warppoints
Format settings, Matrix          : Custom
Codec ID                         : XVID
Codec ID/Hint                    : XviD
Duration                         : 1h 40mn
Bit rate                         : 787 Kbps
Width                            : 624 pixels
Height                           : 352 pixels
Display aspect ratio             : 16:9
Frame rate                       : 23.976 fps
Color space                      : YUV
Chroma subsampling               : 4:2:0
Bit depth                        : 8 bits
Scan type                        : Progressive
Bits/(Pixel*Frame)               : 0.149
Stream size                      : 568 MiB (63%)
Writing library                  : XviD 1.2.1 (UTC 2008-12-04)

Audio
ID                               : 1
Format                           : AC-3
Format/Info                      : Audio Coding 3
Mode extension                   : CM (complete main)
Codec ID                         : 2000
Duration                         : 1h 40mn
Bit rate mode                    : Constant
Bit rate                         : 448 Kbps
Channel(s)                       : 6 channels
Channel positions                : Front: L C R, Side: L R, LFE
Sampling rate                    : 48.0 KHz
Bit depth                        : 16 bits
Stream size                      : 323 MiB (36%)
Alignment                        : Split accross interleaves
Interleave, duration             : 96 ms (2.30 video frames)
Interleave, preload duration     : 96 ms
Language                         : English

